<?xml version="1.0" encoding="UTF-8"?>
<!--
=============================================================================
File: 050-WORKFLOW-prompt-execution.svg
Version: 2
Path: requirements/050-WORKFLOW-prompt-execution.svg
Description: Prompt-execution workflow of the AyWizz platform, redrawn in an
             infographic / blueprint style (inspired by the "8-step agent
             blueprint" and the "RAG vs Agentic RAG" reference cards), with
             more platform-specific detail.

             Two bands :
              - Band A "Build-time blueprint" : the 8 design steps of an
                agent system mapped onto AyWizz components (C4/C5 spec,
                R-200-026 agent prompts, C8 routing, C9/OpenHands tools,
                C7 memory, C4 orchestration, Next.js UI, D-017 evals).
              - Band B "Run-time execution" : how a prompt actually runs —
                (B1) the linear chat-RAG turn in C3, (B2) the agentic C4
                pipeline (5 phases / 3 gates / NEEDS_CONTEXT + fix-attempt +
                steer loops). Dashed grey = planned / D-010-gated (query
                rewrite, hybrid retrieval A.b, contextualisation A.c, the
                iterative agentic-retrieval loop R-400-206).

             Authoritative spec sources : 200-SPEC (pipeline), 400-SPEC
             (memory/RAG, D-016), 800-SPEC (LLM gateway), 999-SYNTHESIS
             (D-010/D-011/D-016/D-017). v1 of this file was a UML sequence
             diagram (kept in git history) ; v2 is the blueprint redesign.
=============================================================================
-->
<svg xmlns="http://www.w3.org/2000/svg" viewBox="0 0 1280 1440" font-family="-apple-system, BlinkMacSystemFont, 'Segoe UI', Helvetica, Arial, sans-serif">

  <defs>
    <marker id="arrow" viewBox="0 0 10 10" refX="9" refY="5" markerWidth="6" markerHeight="6" orient="auto-start-reverse">
      <path d="M 0 0 L 10 5 L 0 10 z" fill="#1f2937"/>
    </marker>
    <marker id="arrow-rose" viewBox="0 0 10 10" refX="9" refY="5" markerWidth="6" markerHeight="6" orient="auto-start-reverse">
      <path d="M 0 0 L 10 5 L 0 10 z" fill="#be123c"/>
    </marker>
    <marker id="arrow-green" viewBox="0 0 10 10" refX="9" refY="5" markerWidth="6" markerHeight="6" orient="auto-start-reverse">
      <path d="M 0 0 L 10 5 L 0 10 z" fill="#059669"/>
    </marker>
    <marker id="arrow-grey" viewBox="0 0 10 10" refX="9" refY="5" markerWidth="6" markerHeight="6" orient="auto-start-reverse">
      <path d="M 0 0 L 10 5 L 0 10 z" fill="#94a3b8"/>
    </marker>
  </defs>

  <rect x="0" y="0" width="1280" height="1440" fill="#ffffff"/>

  <!-- ====================================================================
       Title band
       ==================================================================== -->
  <rect x="0" y="0" width="1280" height="80" fill="#0f172a"/>
  <text x="40" y="38" fill="#f1f5f9" font-size="23" font-weight="700">AyWizz — Prompt execution &amp; agent blueprint</text>
  <text x="40" y="63" fill="#94a3b8" font-size="13">Band A : the 8 design steps mapped to AyWizz components.  Band B : how a prompt actually runs (chat-RAG turn + agentic C4 pipeline).  Dashed grey = planned / D-010-gated.</text>

  <!-- ====================================================================
       BAND A — Build-time blueprint (8 step cards, snake order)
       ==================================================================== -->
  <rect x="0" y="95" width="1280" height="34" fill="#e2e8f0"/>
  <text x="40" y="118" fill="#0f172a" font-size="16" font-weight="600">A · Build-time blueprint — designing the agent system  (1→4 top, then 5→8 bottom)</text>

  <!-- Card 1 : Purpose and Scope (blue) -->
  <g>
    <rect x="42" y="145" width="280" height="135" rx="8" fill="#eff6ff" stroke="#1d4ed8" stroke-width="1.5"/>
    <rect x="42" y="145" width="280" height="26" rx="8" fill="#1d4ed8"/>
    <rect x="42" y="159" width="280" height="12" fill="#1d4ed8"/>
    <circle cx="60" cy="158" r="11" fill="#ffffff"/>
    <text x="60" y="162" text-anchor="middle" font-size="12" font-weight="700" fill="#1d4ed8">1</text>
    <text x="80" y="162" fill="#ffffff" font-size="13" font-weight="700">Purpose &amp; Scope</text>
    <g font-size="10.5" fill="#1e3a8a">
      <text x="58" y="194">• C4 brainstorm + spec phases</text>
      <text x="58" y="212">• C5 Requirements (R-NNN entities)</text>
      <text x="58" y="230">• success = Gates A / B / C</text>
      <text x="58" y="248">• traceability by construction</text>
    </g>
  </g>

  <!-- Card 2 : Agent Prompt Design (rose) -->
  <g>
    <rect x="347" y="145" width="280" height="135" rx="8" fill="#fff1f2" stroke="#be123c" stroke-width="1.5"/>
    <rect x="347" y="145" width="280" height="26" rx="8" fill="#be123c"/>
    <rect x="347" y="159" width="280" height="12" fill="#be123c"/>
    <circle cx="365" cy="158" r="11" fill="#ffffff"/>
    <text x="365" y="162" text-anchor="middle" font-size="12" font-weight="700" fill="#be123c">2</text>
    <text x="385" y="162" fill="#ffffff" font-size="13" font-weight="700">Agent prompt design</text>
    <g font-size="10.5" fill="#9f1239">
      <text x="363" y="194">• agent defs R-200-026 (YAML+MD)</text>
      <text x="363" y="212">• role / system prompt / effort</text>
      <text x="363" y="230">• project + user prompt (C2 prefs)</text>
      <text x="363" y="248">• guardrails: AuthGuard, role gates</text>
    </g>
  </g>

  <!-- Card 3 : LLM Routing (green) -->
  <g>
    <rect x="652" y="145" width="280" height="135" rx="8" fill="#f0fdf4" stroke="#16a34a" stroke-width="1.5"/>
    <rect x="652" y="145" width="280" height="26" rx="8" fill="#16a34a"/>
    <rect x="652" y="159" width="280" height="12" fill="#16a34a"/>
    <circle cx="670" cy="158" r="11" fill="#ffffff"/>
    <text x="670" y="162" text-anchor="middle" font-size="12" font-weight="700" fill="#16a34a">3</text>
    <text x="690" y="162" fill="#ffffff" font-size="13" font-weight="700">Choose &amp; route LLM</text>
    <g font-size="10.5" fill="#166534">
      <text x="668" y="194">• C8 LiteLLM proxy (single egress)</text>
      <text x="668" y="212">• per-agent route by quality/cost</text>
      <text x="668" y="230">• Opus / Sonnet / Haiku tiers</text>
      <text x="668" y="248">• provider-agnostic (D-011)</text>
    </g>
  </g>

  <!-- Card 4 : Tools and Integrations (purple) -->
  <g>
    <rect x="957" y="145" width="280" height="135" rx="8" fill="#f5f3ff" stroke="#6d28d9" stroke-width="1.5"/>
    <rect x="957" y="145" width="280" height="26" rx="8" fill="#6d28d9"/>
    <rect x="957" y="159" width="280" height="12" fill="#6d28d9"/>
    <circle cx="975" cy="158" r="11" fill="#ffffff"/>
    <text x="975" y="162" text-anchor="middle" font-size="12" font-weight="700" fill="#6d28d9">4</text>
    <text x="995" y="162" fill="#ffffff" font-size="13" font-weight="700">Tools &amp; integrations</text>
    <g font-size="10.5" fill="#5b21b6">
      <text x="973" y="194">• C9 MCP server (8 tools)</text>
      <text x="973" y="212">• OpenHands harness (generate)</text>
      <text x="973" y="230">• DocGen tools (chat-direct)</text>
      <text x="973" y="248">• sub-agents = agent-as-a-tool</text>
    </g>
  </g>

  <!-- Card 5 : Memory Systems (teal), row 2 rightmost -->
  <g>
    <rect x="957" y="300" width="280" height="135" rx="8" fill="#ecfeff" stroke="#0f766e" stroke-width="1.5"/>
    <rect x="957" y="300" width="280" height="26" rx="8" fill="#0f766e"/>
    <rect x="957" y="314" width="280" height="12" fill="#0f766e"/>
    <circle cx="975" cy="313" r="11" fill="#ffffff"/>
    <text x="975" y="317" text-anchor="middle" font-size="12" font-weight="700" fill="#0f766e">5</text>
    <text x="995" y="317" fill="#ffffff" font-size="13" font-weight="700">Memory systems</text>
    <g font-size="10.5" fill="#0d524d">
      <text x="973" y="349">• C7 vector + KG (ArangoDB)</text>
      <text x="973" y="367">• conversation history (episodic)</text>
      <text x="973" y="385">• run trace + steer (working mem)</text>
      <text x="973" y="403">• MinIO file storage (artifacts)</text>
    </g>
  </g>

  <!-- Card 6 : Orchestration (indigo) -->
  <g>
    <rect x="652" y="300" width="280" height="135" rx="8" fill="#eef2ff" stroke="#4338ca" stroke-width="1.5"/>
    <rect x="652" y="300" width="280" height="26" rx="8" fill="#4338ca"/>
    <rect x="652" y="314" width="280" height="12" fill="#4338ca"/>
    <circle cx="670" cy="313" r="11" fill="#ffffff"/>
    <text x="670" y="317" text-anchor="middle" font-size="12" font-weight="700" fill="#4338ca">6</text>
    <text x="690" y="317" fill="#ffffff" font-size="13" font-weight="700">Orchestration</text>
    <g font-size="10.5" fill="#3730a3">
      <text x="668" y="349">• C4 5-phase state machine</text>
      <text x="668" y="367">• 3 hard gates + bounded retry</text>
      <text x="668" y="385">• NATS events (message queues)</text>
      <text x="668" y="403">• sub-agent dispatch (A2A)</text>
    </g>
  </g>

  <!-- Card 7 : User Interface (red) -->
  <g>
    <rect x="347" y="300" width="280" height="135" rx="8" fill="#fef2f2" stroke="#dc2626" stroke-width="1.5"/>
    <rect x="347" y="300" width="280" height="26" rx="8" fill="#dc2626"/>
    <rect x="347" y="314" width="280" height="12" fill="#dc2626"/>
    <circle cx="365" cy="313" r="11" fill="#ffffff"/>
    <text x="365" y="317" text-anchor="middle" font-size="12" font-weight="700" fill="#dc2626">7</text>
    <text x="385" y="317" fill="#ffffff" font-size="13" font-weight="700">User interface</text>
    <g font-size="10.5" fill="#991b1b">
      <text x="363" y="349">• Next.js 16 / React 19</text>
      <text x="363" y="367">• chat + working area (3 panes)</text>
      <text x="363" y="385">• SSE token streaming</text>
      <text x="363" y="403">• REST API via C1 / Traefik</text>
    </g>
  </g>

  <!-- Card 8 : Testing and Evals (amber, PLANNED) -->
  <g>
    <rect x="42" y="300" width="280" height="135" rx="8" fill="#fffbeb" stroke="#b45309" stroke-width="1.5"/>
    <rect x="42" y="300" width="280" height="26" rx="8" fill="#b45309"/>
    <rect x="42" y="314" width="280" height="12" fill="#b45309"/>
    <circle cx="60" cy="313" r="11" fill="#ffffff"/>
    <text x="60" y="317" text-anchor="middle" font-size="12" font-weight="700" fill="#b45309">8</text>
    <text x="80" y="317" fill="#ffffff" font-size="13" font-weight="700">Testing &amp; evals</text>
    <rect x="246" y="305" width="68" height="16" rx="8" fill="#fde68a"/>
    <text x="280" y="317" text-anchor="middle" font-size="9" font-weight="700" fill="#92400e">GAP</text>
    <g font-size="10.5" fill="#92400e">
      <text x="58" y="349">• unit / contract / integration ✓</text>
      <text x="58" y="367">• EVAL harness — D-017 (planned)</text>
      <text x="58" y="385">• retrieval quality / latency</text>
      <text x="58" y="403">• iterate-on-eval loop</text>
    </g>
  </g>

  <!-- Snake-order arrows between cards -->
  <g stroke="#64748b" stroke-width="1.6" fill="none">
    <line x1="322" y1="212" x2="347" y2="212" marker-end="url(#arrow)"/>
    <line x1="627" y1="212" x2="652" y2="212" marker-end="url(#arrow)"/>
    <line x1="932" y1="212" x2="957" y2="212" marker-end="url(#arrow)"/>
    <line x1="1097" y1="282" x2="1097" y2="300" marker-end="url(#arrow)"/>
    <line x1="957" y1="367" x2="932" y2="367" marker-end="url(#arrow)"/>
    <line x1="652" y1="367" x2="627" y2="367" marker-end="url(#arrow)"/>
    <line x1="347" y1="367" x2="322" y2="367" marker-end="url(#arrow)"/>
  </g>

  <!-- ====================================================================
       BAND B — Run-time execution
       ==================================================================== -->
  <rect x="0" y="455" width="1280" height="34" fill="#e2e8f0"/>
  <text x="40" y="478" fill="#0f172a" font-size="16" font-weight="600">B · Run-time execution — how a prompt actually runs</text>

  <!-- B1 : chat-RAG turn (linear today) -->
  <text x="40" y="520" fill="#1d4ed8" font-size="13" font-weight="600">B1 · Chat-RAG turn (C3) — linear today</text>

  <g font-size="10.5">
    <!-- node 1 -->
    <rect x="70" y="545" width="165" height="62" rx="8" fill="#eff6ff" stroke="#1d4ed8"/>
    <circle cx="86" cy="561" r="10" fill="#1d4ed8"/><text x="86" y="565" text-anchor="middle" fill="#fff" font-weight="700" font-size="11">1</text>
    <text x="152" y="578" text-anchor="middle" font-weight="600" fill="#1e3a8a">User prompt</text>
    <text x="152" y="594" text-anchor="middle" fill="#475569">POST /messages (C3)</text>
    <!-- node 2 -->
    <rect x="265" y="545" width="165" height="62" rx="8" fill="#fff7ed" stroke="#9a3412"/>
    <circle cx="281" cy="561" r="10" fill="#9a3412"/><text x="281" y="565" text-anchor="middle" fill="#fff" font-weight="700" font-size="11">2</text>
    <text x="347" y="578" text-anchor="middle" font-weight="600" fill="#7c2d12">Forward-auth</text>
    <text x="347" y="594" text-anchor="middle" fill="#475569">C1 → C2 → identity</text>
    <!-- node 3 -->
    <rect x="460" y="545" width="165" height="62" rx="8" fill="#f0fdf4" stroke="#16a34a"/>
    <circle cx="476" cy="561" r="10" fill="#16a34a"/><text x="476" y="565" text-anchor="middle" fill="#fff" font-weight="700" font-size="11">3</text>
    <text x="542" y="575" text-anchor="middle" font-weight="600" fill="#166534">Retrieve (C7)</text>
    <text x="542" y="590" text-anchor="middle" fill="#475569">vector + KG</text>
    <text x="542" y="603" text-anchor="middle" fill="#475569">ArangoDB</text>
    <!-- node 4 -->
    <rect x="655" y="545" width="165" height="62" rx="8" fill="#f8fafc" stroke="#475569"/>
    <circle cx="671" cy="561" r="10" fill="#475569"/><text x="671" y="565" text-anchor="middle" fill="#fff" font-weight="700" font-size="11">4</text>
    <text x="737" y="572" text-anchor="middle" font-weight="600" fill="#334155">Prompt assembly</text>
    <text x="737" y="587" text-anchor="middle" fill="#475569">system+user+project</text>
    <text x="737" y="600" text-anchor="middle" fill="#475569">+RAG+history</text>
    <!-- node 5 -->
    <rect x="850" y="545" width="165" height="62" rx="8" fill="#f5f3ff" stroke="#6d28d9"/>
    <circle cx="866" cy="561" r="10" fill="#6d28d9"/><text x="866" y="565" text-anchor="middle" fill="#fff" font-weight="700" font-size="11">5</text>
    <text x="932" y="578" text-anchor="middle" font-weight="600" fill="#5b21b6">C8 → provider</text>
    <text x="932" y="594" text-anchor="middle" fill="#475569">stream tokens</text>
    <!-- node 6 -->
    <rect x="1045" y="545" width="165" height="62" rx="8" fill="#eff6ff" stroke="#1d4ed8"/>
    <circle cx="1061" cy="561" r="10" fill="#1d4ed8"/><text x="1061" y="565" text-anchor="middle" fill="#fff" font-weight="700" font-size="11">6</text>
    <text x="1127" y="578" text-anchor="middle" font-weight="600" fill="#1e3a8a">SSE reply → UI</text>
    <text x="1127" y="594" text-anchor="middle" fill="#475569">InlineLog + tokens</text>
  </g>
  <g stroke="#64748b" stroke-width="1.6" fill="none">
    <line x1="235" y1="576" x2="265" y2="576" marker-end="url(#arrow)"/>
    <line x1="430" y1="576" x2="460" y2="576" marker-end="url(#arrow)"/>
    <line x1="625" y1="576" x2="655" y2="576" marker-end="url(#arrow)"/>
    <line x1="820" y1="576" x2="850" y2="576" marker-end="url(#arrow)"/>
    <line x1="1015" y1="576" x2="1045" y2="576" marker-end="url(#arrow)"/>
  </g>

  <!-- DocGen tool-loop branch (under node 5) -->
  <g font-size="10">
    <rect x="820" y="630" width="225" height="40" rx="6" fill="#fef3c7" stroke="#b45309"/>
    <text x="932" y="648" text-anchor="middle" font-weight="600" fill="#92400e">DocGen tool-loop (D-015)</text>
    <text x="932" y="662" text-anchor="middle" fill="#92400e">tool_calls → C4 /documents → MinIO+Gitea</text>
  </g>
  <g stroke="#b45309" stroke-width="1.4" fill="none">
    <path d="M 910 607 L 910 630" marker-end="url(#arrow-rose)"/>
    <path d="M 955 630 L 955 607" marker-end="url(#arrow-rose)"/>
  </g>

  <!-- Planned-enhancements callout (dashed grey) -->
  <g>
    <rect x="70" y="630" width="720" height="58" rx="6" fill="#f8fafc" stroke="#94a3b8" stroke-width="1.4" stroke-dasharray="6 3"/>
    <text x="84" y="648" font-size="11" font-weight="700" fill="#475569">Planned (Agentic-RAG · V2 #3) — dashed grey throughout :</text>
    <g font-size="10.5" fill="#475569">
      <text x="84" y="665">• query rewrite / expansion before retrieve   • hybrid BM25+dense+RRF in ③ (A.b)   • cumulative chunk contextualisation (A.c)</text>
      <text x="84" y="680">• relevance self-check + iterative retrieval loop — R-400-206, D-010-gated (see B2 inset)</text>
    </g>
  </g>

  <!-- B2 : C4 pipeline (agentic) -->
  <text x="40" y="730" fill="#be123c" font-size="13" font-weight="600">B2 · C4 orchestrator pipeline (agentic) — 5 phases · 3 gates · iterate</text>

  <!-- entry nodes -->
  <g font-size="10.5">
    <rect x="70" y="752" width="165" height="50" rx="8" fill="#1e293b" stroke="#0f172a"/>
    <circle cx="86" cy="768" r="10" fill="#fff"/><text x="86" y="772" text-anchor="middle" fill="#1e293b" font-weight="700" font-size="11">1</text>
    <text x="152" y="773" text-anchor="middle" font-weight="600" fill="#f1f5f9">Operator goal</text>
    <text x="152" y="789" text-anchor="middle" fill="#cbd5e1">Pipeline page (UI)</text>

    <rect x="300" y="752" width="180" height="50" rx="8" fill="#fff1f2" stroke="#be123c"/>
    <circle cx="316" cy="768" r="10" fill="#be123c"/><text x="316" y="772" text-anchor="middle" fill="#fff" font-weight="700" font-size="11">2</text>
    <text x="390" y="773" text-anchor="middle" font-weight="600" fill="#9f1239">Create run + auth</text>
    <text x="390" y="789" text-anchor="middle" fill="#475569">POST /orchestrator/runs</text>
  </g>
  <g stroke="#64748b" stroke-width="1.6" fill="none">
    <line x1="235" y1="777" x2="300" y2="777" marker-end="url(#arrow)"/>
    <line x1="390" y1="802" x2="390" y2="835" marker-end="url(#arrow)"/>
  </g>

  <!-- loop box -->
  <rect x="70" y="835" width="1140" height="365" rx="8" fill="none" stroke="#be123c" stroke-width="1.4" stroke-dasharray="7 4"/>
  <rect x="70" y="835" width="640" height="20" rx="4" fill="#fce7f3"/>
  <text x="82" y="850" font-size="11" font-weight="700" fill="#9d174d">loop · for phase in [ brainstorm → spec → plan → generate → review ]</text>

  <!-- phase sub-flow nodes -->
  <g font-size="10.5">
    <rect x="95" y="900" width="150" height="58" rx="8" fill="#fff1f2" stroke="#be123c"/>
    <circle cx="111" cy="916" r="10" fill="#be123c"/><text x="111" y="920" text-anchor="middle" fill="#fff" font-weight="700" font-size="11">3</text>
    <text x="170" y="932" text-anchor="middle" font-weight="600" fill="#9f1239">drain steer</text>
    <text x="170" y="948" text-anchor="middle" fill="#475569">pending_steer queue</text>

    <rect x="295" y="900" width="160" height="58" rx="8" fill="#f0fdf4" stroke="#16a34a"/>
    <circle cx="311" cy="916" r="10" fill="#16a34a"/><text x="311" y="920" text-anchor="middle" fill="#fff" font-weight="700" font-size="11">4</text>
    <text x="375" y="932" text-anchor="middle" font-weight="600" fill="#166534">retrieve (C7)</text>
    <text x="375" y="948" text-anchor="middle" fill="#475569">phase-scoped RAG</text>

    <rect x="505" y="900" width="180" height="58" rx="8" fill="#f5f3ff" stroke="#6d28d9"/>
    <circle cx="521" cy="916" r="10" fill="#6d28d9"/><text x="521" y="920" text-anchor="middle" fill="#fff" font-weight="700" font-size="11">5</text>
    <text x="595" y="928" text-anchor="middle" font-weight="600" fill="#5b21b6">dispatch agent (C8)</text>
    <text x="595" y="943" text-anchor="middle" fill="#475569">architect/planner/impl…</text>
    <text x="595" y="955" text-anchor="middle" fill="#475569">generate → OpenHands</text>

    <rect x="735" y="900" width="165" height="58" rx="8" fill="#f8fafc" stroke="#475569"/>
    <circle cx="751" cy="916" r="10" fill="#475569"/><text x="751" y="920" text-anchor="middle" fill="#fff" font-weight="700" font-size="11">6</text>
    <text x="817" y="928" text-anchor="middle" font-weight="600" fill="#334155">AgentCompletion</text>
    <text x="817" y="943" text-anchor="middle" fill="#475569">DONE / WITH_CONCERNS</text>
    <text x="817" y="955" text-anchor="middle" fill="#475569">NEEDS_CONTEXT / BLOCKED</text>
  </g>

  <!-- gate decision diamond -->
  <g>
    <polygon points="1085,900 1175,929 1085,958 995,929" fill="#fff1f2" stroke="#be123c" stroke-width="1.5"/>
    <text x="1085" y="925" text-anchor="middle" font-size="11" font-weight="700" fill="#9d174d">Gate</text>
    <text x="1085" y="939" text-anchor="middle" font-size="10" fill="#9d174d">A / B / C ?</text>
  </g>

  <!-- sub-flow arrows -->
  <g stroke="#64748b" stroke-width="1.6" fill="none">
    <line x1="245" y1="929" x2="295" y2="929" marker-end="url(#arrow)"/>
    <line x1="455" y1="929" x2="505" y2="929" marker-end="url(#arrow)"/>
    <line x1="685" y1="929" x2="735" y2="929" marker-end="url(#arrow)"/>
    <line x1="900" y1="929" x2="995" y2="929" marker-end="url(#arrow)"/>
  </g>

  <!-- NEEDS_CONTEXT loop : gate → back to retrieve (dashed, over the top) -->
  <g stroke="#94a3b8" stroke-width="1.4" fill="none" stroke-dasharray="6 3">
    <path d="M 1085 900 L 1085 878 L 375 878 L 375 900" marker-end="url(#arrow-grey)"/>
  </g>
  <text x="700" y="873" text-anchor="middle" font-size="10" fill="#64748b">NEEDS_CONTEXT → re-retrieve (enrichment round, ≤ cap)</text>

  <!-- fix-attempt loop : gate → back to dispatch (dashed, under the row) -->
  <g stroke="#94a3b8" stroke-width="1.4" fill="none" stroke-dasharray="6 3">
    <path d="M 1085 958 L 1085 982 L 595 982 L 595 958" marker-end="url(#arrow-grey)"/>
  </g>
  <text x="800" y="996" text-anchor="middle" font-size="10" fill="#64748b">gate fail → fix-attempt (≤ cap, then BLOCKED)</text>

  <!-- gate pass → materialise → next phase -->
  <g font-size="10.5">
    <rect x="940" y="1030" width="250" height="56" rx="8" fill="#fef3c7" stroke="#b45309"/>
    <text x="1065" y="1052" text-anchor="middle" font-weight="600" fill="#92400e">gate pass</text>
    <text x="1065" y="1067" text-anchor="middle" fill="#92400e">generate → materialise files</text>
    <text x="1065" y="1079" text-anchor="middle" fill="#92400e">MinIO + Gitea push → next phase</text>
  </g>
  <g stroke="#059669" stroke-width="1.6" fill="none">
    <path d="M 1085 958 L 1085 1030" marker-end="url(#arrow-green)"/>
  </g>
  <text x="1100" y="1000" font-size="10" fill="#059669" font-weight="600">pass</text>
  <!-- next-phase return -->
  <g stroke="#64748b" stroke-width="1.4" fill="none" stroke-dasharray="6 3">
    <path d="M 940 1058 L 170 1058 L 170 958" marker-end="url(#arrow-grey)"/>
  </g>
  <text x="500" y="1074" text-anchor="middle" font-size="10" fill="#64748b">advance to next phase (re-enter loop at ③)</text>

  <!-- v2 inset : agentic retrieval loop (D-010-gated) -->
  <g>
    <rect x="95" y="1100" width="600" height="80" rx="8" fill="#f8fafc" stroke="#94a3b8" stroke-width="1.4" stroke-dasharray="6 3"/>
    <text x="110" y="1120" font-size="11" font-weight="700" fill="#475569">v2 / D-010-gated — agentic retrieval loop (R-400-206)</text>
    <text x="110" y="1140" font-size="10.5" fill="#475569">rewrite query → enter layer (L3 thematic / L1-L2 specific) → traverse</text>
    <text x="110" y="1156" font-size="10.5" fill="#475569">→ assess (descend / stop) → actively prune working set → repeat (bounded)</text>
    <text x="110" y="1172" font-size="10.5" fill="#64748b">= the right side of "Agentic RAG" ; build only once v1 is demonstrably insufficient (needs the eval harness, step 8).</text>
  </g>

  <!-- exit nodes (after loop) -->
  <g font-size="10.5">
    <rect x="730" y="1115" width="170" height="50" rx="8" fill="#fef2f2" stroke="#dc2626"/>
    <circle cx="746" cy="1131" r="10" fill="#dc2626"/><text x="746" y="1135" text-anchor="middle" fill="#fff" font-weight="700" font-size="11">7</text>
    <text x="815" y="1136" text-anchor="middle" font-weight="600" fill="#991b1b">Run COMPLETED</text>
    <text x="815" y="1151" text-anchor="middle" fill="#475569">or BLOCKED</text>

    <rect x="960" y="1115" width="225" height="50" rx="8" fill="#1e293b" stroke="#0f172a"/>
    <circle cx="976" cy="1131" r="10" fill="#fff"/><text x="976" y="1135" text-anchor="middle" fill="#1e293b" font-weight="700" font-size="11">8</text>
    <text x="1072" y="1136" text-anchor="middle" font-weight="600" fill="#f1f5f9">UI polls GET /runs + trace</text>
    <text x="1072" y="1151" text-anchor="middle" fill="#cbd5e1">trace[200] · steer · back-scroll</text>
  </g>
  <g stroke="#64748b" stroke-width="1.6" fill="none">
    <path d="M 710 1017 L 815 1017 L 815 1115" marker-end="url(#arrow)"/>
    <line x1="900" y1="1140" x2="960" y2="1140" marker-end="url(#arrow)"/>
  </g>
  <text x="730" y="1010" font-size="10" fill="#64748b">loop ends</text>
  <!-- steer back into loop -->
  <g stroke="#94a3b8" stroke-width="1.4" fill="none" stroke-dasharray="6 3">
    <path d="M 1072 1115 L 1072 1075 L 1210 1075" marker-end="url(#arrow-grey)"/>
  </g>
  <text x="1100" y="1090" font-size="10" fill="#64748b">POST /steer → drained at ③</text>

  <!-- ====================================================================
       Legend
       ==================================================================== -->
  <rect x="0" y="1300" width="1280" height="64" fill="#0f172a"/>
  <text x="40" y="1324" fill="#f1f5f9" font-size="12" font-weight="700">Legend</text>
  <g font-size="11" fill="#e2e8f0">
    <line x1="120" y1="1340" x2="160" y2="1340" stroke="#64748b" stroke-width="2.5" marker-end="url(#arrow)"/>
    <text x="170" y="1344">core flow</text>
    <line x1="290" y1="1340" x2="330" y2="1340" stroke="#059669" stroke-width="2.5" marker-end="url(#arrow-green)"/>
    <text x="340" y="1344">gate pass / RAG</text>
    <line x1="470" y1="1340" x2="510" y2="1340" stroke="#b45309" stroke-width="2.5" marker-end="url(#arrow-rose)"/>
    <text x="520" y="1344">artifact / tool write (MinIO+Gitea)</text>
    <line x1="760" y1="1340" x2="800" y2="1340" stroke="#94a3b8" stroke-width="2" stroke-dasharray="6 3" marker-end="url(#arrow-grey)"/>
    <text x="810" y="1344">agentic loop (NEEDS_CONTEXT / fix / steer)</text>
    <rect x="1080" y="1333" width="22" height="13" rx="3" fill="#f8fafc" stroke="#94a3b8" stroke-dasharray="4 2"/>
    <text x="1112" y="1344">planned / D-010-gated</text>
  </g>

</svg>
